/* XPM */
static char *f4e16fc5889547abffd1b9b767df3daf[] = {
/* columns rows colors chars-per-pixel */
"64 64 9 1 ",
"  c #106F8B",
". c #116F8B",
"X c #106F8C",
"o c #116F8C",
"O c #10708B",
"+ c #11708B",
"@ c #10708C",
"# c #11708C",
"$ c None",
/* pixels */
"$$$$$$$$$$ #OO O## ####O#@ O##@@@OO#O @@O##O #   @## O@$$$$$$$$$",
"$$$$$$$$## O#o Oo o##### #O#@##O@ @#O  #O####OO@ # # #O #$$$$$$$",
"$$$$$$$######O#@#O### ## @####O#  ###OO### ##     OO #oOO#$$$$$$",
"$$$$$$#@ O## ##  ###Oo#@@@#####o## ###O###@## @# O## ##O  #$$$$$",
"$$$$$$#@## ####  O#o ##o#@ O# ##@###O###O#  O##@O## oOO####$$$$$",
"$$$$$o#O#####O ####O### #@@### # ## ##  #######o# # O ##  ##$$$$",
"$$$$$####X@## O###  @ O##O##  # #  # O### #Xo@@ # ## O##  O $$$$",
"$$$$$# O#O#@OO#@ #@#o####O#  O ###@#O##@## O # O ##O###  O #$$$$",
"$$$$$ ## O##OoO ## ## #########O#### ## # @##@#  #O # ##O###$$$$",
"$$$$$ ####o #oO###O# ## #########  O #@OO O# X###O  #O##OO#$$$$$",
"$$$$$##@##O#O#####o#####O## ###      ####OO# ##  o## ## O#$$$$$$",
"$$$$$#### #O ##O## OO@ #@#  ######O##O####  ####o### ## #$$$$$$$",
"$$$$$######O########O###o#o##O#O# O# ####OOO########  O $$$$$$$$",
"$$$$$######### #O @# ###$$$$$$$$$$$$$$$$$$$$$$$$$$$$$$$$$$$$$$$$",
"$$$$$    ###O   O### #$$$$$$$$$$$$$$$$$$$$$$$$$$$$$$$$$$$$$$$$$$",
"$$$$$# O @##### ##O##$$$$$$$$$$$$$$$$$$$$$$$$$$$$$$$$$$$$$$$$$$$",
"$$$$$##@####O####### $$$$$$$$$$$$$$$$$$$$$$$$$$$$$$$$$$$$$$$$$$$",
"$$$$$# ###  # OO# ###$$$$$$$$$$$$$$$$$$$$$$$$$$$$$$$$$$$$$$$$$$$",
"$$$$$      O##O@@@##$$$$$$$$$$$$$$$$$$$$$$$$$$$$$$$$$$$$$$$$$$$$",
"$$$$$O #  #O @#@O#OO $$$$$$$$$$$$$$$$$$$$$$$$$$$$$$$$$$$$$$$$$$$",
"$$$$$######OO## O ##$$$$$$$$$$$$$$$$$$$$$$$$$$$$$$$$$$$$$$$$$$$$",
"$$$$$#O#### ### # ##$$$$$$$$$$$$$$$$$$$$$$$$$$$$$$$$$$$$$$$$$$$$",
"$$$$$###### O#O ####O$$$$$$$$$$$$$$$$$$$$$$$$$$$$$$$$$$$$$$$$$$$",
"$$$$$O######O## #O  O$$$$$$$$$$$$$$$$$$$$$$$$$$$$$$$$$$$$$$$$$$$",
"$$$$$OO#### ##### ##$$$$$$$$$$$$$$$$$$$$$$$$$$$$$$$$$$$$$$$$$$$$",
"$$$$$### #o# OO# #O##$$$$$$$$$$$$$$$$$$$$$$$$$$$$$$$$$$$$$$$$$$$",
"$$$$$ O@ #o## ## #### O#### ##### ####  #$$$$$$$$$$$$$$$$$##$$$$",
"$$$$$# O######### @### O   ## O###O# ##O$$$$$$$$$$$$$$$$$O O$$$$",
"$$$$$#O ##OO##########o#oo###O ### ###$$$$$$$$$$$$$$$$$##  #$$$$",
"$$$$$o## O##O## ###O### #O##O O  #O #$$$$$$$$$$$$$$$$$OO# ##$$$$",
"$$$$$ o##### # ## @OO###O##### # o#$$$$$$$$$$$$$$$$$$O #### $$$$",
"$$$$$  ## ###O# ###o@### O#######$$$$$$$$$$$$$$$$$$## ###@##$$$$",
"$$$$$# @Oo # ### @##@X### ### ###$$$$$$$$$$$$$$$$$$######   $$$$",
"$$$$$X###### O######@##O### # O ###$$$$$$$$$$$$$$$$$$  ### O$$$$",
"$$$$$  # ###OO#O ### #O  ##O###  ####$$$$$$$$$$$$$$$$$#O### $$$$",
"$$$$$O@@ O#O# #####@ @  #O####O##### #$$$$$$$$$$$$$$$$$O#oo $$$$",
"$$$$$O#o###o# O## ###Oo# ######  #######$$$$$$$$$$$$$$$$$O #$$$$",
"$$$$$OO## #### # #  ### # # O   # #######$$$$$$$$$$$$$$$$$  $$$$",
"$$$$$#### O## #  ### $$$$$$$$$$$$$$$$$$$$$$$$$$$$$$$$$$$$$$$$$$$",
"$$$$$##oO ##  O  ###$$$$$$$$$$$$$$$$$$$$$$$$$$$$$$$$$$$$$$$$$$$$",
"$$$$$###O ##O  O#####$$$$$$$$$$$$$$$$$$$$$$$$$$$$$$$$$$$$$$$$$$$",
"$$$$$ ####oO# ###  ##$$$$$$$$$$$$$$$$$$$$$$$$$$$$$$$$$$$$$$$$$$$",
"$$$$$##X#X ##OO#####$$$$$$$$$$$$$$$$$$$$$$$$$$$$$$$$$$$$$$$$$$$$",
"$$$$$#O# @Oo#  # ## $$$$$$$$$$$$$$$$$$$$$$$$$$$$$$$$$$$$$$$$$$$$",
"$$$$$### X#@O ###O  #$$$$$$$$$$$$$$$$$$$$$$$$$$$$$$$$$$$$$$$$$$$",
"$$$$$O# @####@  #O##$$$$$$$$$$$$$$$$$$$$$$$$$$$$$$$$$$$$$$$$$$$$",
"$$$$$ #O#o###@@##### $$$$$$$$$$$$$$$$$$$$$$$$$$$$$$$$$$$$$$$$$$$",
"$$$$$ O#  ##    @####$$$$$$$$$$$$$$$$$$$$$$$$$$$$$$$$$$$$$$$$$$$",
"$$$$$#O##O#O####O@###$$$$$$$$$$$$$$$$$$$$$$$$$$$$$$$$$$$$$$$$$$$",
"$$$$$####### ##@##  ##$$$$$$$$$$$$$$$$$$$$$$$$$$$$$$$$$$$$$$$$$$",
"$$$$$OO#OoO#X@# OO######$$$$$$$$$$$$$$$$$$$$$$$$$$$$$$$$$$$$$$$$",
"$$$$$###O###O  X######O######O##  ## ## oOOO#######  ## $$$$$$$$",
"$$$$$#######O#  # @#OOO #  ###O ###O###  # ##### ## ##OO#$$$$$$$",
"$$$$$##  @#X ##  #@    ######### ## #########O#@# #### # O$$$$$$",
"$$$$$######   ##O #O@# #### ##  #  ## ### o##O####O  ###  #$$$$$",
"$$$$$###@##o# @#@####O# O# ##o ## #   ###O## OO  #OO  # ####$$$$",
"$$$$$   o  #####o#### O#########@ ####O #####o #####OO######$$$$",
"$$$$$###### @######### # ##O@###@@#######  ###@###o#  #O ## $$$$",
"$$$$$OO##O##@####o#O#### #O  O#@##O ###O ##O #### ## ## O###$$$$",
"$$$$$$ ###@####X O######   @#####O# #O ## #######O#O##OOOO $$$$$",
"$$$$$$O#O# ###@      O# @## ###@o# #######O@  # ## OOO## ##$$$$$",
"$$$$$$$# O##  ##O##  O#  ###### #O@   #@###XOO  ##@###oO #$$$$$$",
"$$$$$$$$@X # ##O o### # OO# ##O ##   OO#######O#O###@#O##$$$$$$$",
"$$$$$$$$$$## ###O# ##O ## # ##### #### O##O###@ O#  @##$$$$$$$$$"
};
