/* XPM */
static char *_d3dd02f00cd4d248fb3059cdd530b40[] = {
/* columns rows colors chars-per-pixel */
"32 32 9 1 ",
"  c #106F8B",
". c #116F8B",
"X c #106F8C",
"o c #116F8C",
"O c #10708B",
"+ c #11708B",
"@ c #10708C",
"# c #11708C",
"$ c None",
/* pixels */
"$$$$#OOO@###@O#@O@O@##O  #OO$$$$",
"$$$#####O###@###o###### .O#OO$$$",
"$$$#### ##@#@############o #o#$$",
"$$$###O@#@@### O##O##X#O.#O#.O$$",
"$$$####@#########O#@O###O ##O#$$",
"$$$##O###O###.##  ###O##o###O$$$",
"$$$####@@#O##o###O###O####.$$$$$",
"$$$ @#@ ###$$$$$$$$$$$$$$$$$$$$$",
"$$$##@####$$$$$$$$$$$$$$$$$$$$$$",
"$$$  O@@@#$$$$$$$$$$$$$$$$$$$$$$",
"$$$##O@#.#$$$$$$$$$$$$$$$$$$$$$$",
"$$$####@##$$$$$$$$$$$$$$$$$$$$$$",
"$$$###O#O#$$$$$$$$$$$$$$$$$$$$$$",
"$$$O#######Oo######O$$$$$$$$$O$$",
"$$$##@######o#O.#O#$$$$$$$$O#O$$",
"$$$###@###@#O####$$$$$$$$$O###$$",
"$$$@##O@##@#@####$$$$$$$$$### $$",
"$$$@##O###@ ###O###$$$$$$$$O#o$$",
"$$$########o### ####$$$$$$$$$.$$",
"$$$#.#O.##$$$$$$$$$$$$$$$$$$$$$$",
"$$$###OO##$$$$$$$$$$$$$$$$$$$$$$",
"$$$#X@O###$$$$$$$$$$$$$$$$$$$$$$",
"$$$#@#@@#O$$$$$$$$$$$$$$$$$$$$$$",
"$$$Oo#@.##$$$$$$$$$$$$$$$$$$$$$$",
"$$$#####@##$$$$$$$$$$$$$$$$$$$$$",
"$$$###@X########.##X.O###OO$$$$$",
"$$$###O @@OO###O###########OO$$$",
"$$$##o #@#@O###o   ###OO#O.###$$",
"$$$########O####@#########O###$$",
"$$$#####X@##  ###O######@O#OO#$$",
"$$$#O##@..OO@####  ##@O.#@##O$$$",
"$$$$X#X#O#O O#### OO#@#O####$$$$"
};
