/* XPM */
static char *_acd78224d364ad9c3f1abc22add38e8[] = {
/* columns rows colors chars-per-pixel */
"128 128 9 1 ",
"  c #106F8B",
". c #116F8B",
"X c #106F8C",
"o c #116F8C",
"O c #10708B",
"+ c #11708B",
"@ c #10708C",
"# c #11708C",
"$ c None",
/* pixels */
"$$$$$$$$$$$$$$$$$$$$$$### OO##  ###@#  ## ## O  ##@@   ###O#@@ ## #O##O #O ##@@## ## #@ O ##   @  #  ## # OO$$$$$$$$$$$$$$$$$$$$",
"$$$$$$$$$$$$$$$$$$$#  # @# #  #OO###  @#######OO## ## O# OO##  #@O# OO###  #  @ O###@#O # #  O   ## ####  O##  $$$$$$$$$$$$$$$$$",
"$$$$$$$$$$$$$$$$$ ##  O O  #  O#@oOO o# ### ####  # OO ### ##O#O@# ## ## O    #O ###@# @# #O ##@ ##@  #  #@ O@ ##$$$$$$$$$$$$$$$",
"$$$$$$$$$$$$$$$$###  # O#o# ## @    @# ## #    ## ###  #@ #### #    O## #@    ###  # ###O##O# #   ##  ##  @##   # #$$$$$$$$$$$$$",
"$$$$$$$$$$$$$$######@#####@O###O#o O#@ @## ###O#  @ ####  ## OO## # @@#o#O#O @##### o O#OO#  ## #O#O O#O##O# o#O  # $$$$$$$$$$$$",
"$$$$$$$$$$$$$##   O#### #  O##@#O## #####  ##O## ##### ##### #### @# #@##  #O # ###O  # ###  #   #  ##    ### @ @## #$$$$$$$$$$$",
"$$$$$$$$$$$$$## # O#O##O  ### ## ##@## ###  X  ## @ ##@##@##O# #  # #  ####@O # #### @###   @ ##    ##### ####O #  #  $$$$$$$$$$",
"$$$$$$$$$$$$##@ # ########O##      ##@##O #### @ # ##  ##  ##  ####  O #  ## ## # #### ##O  ## ##OO## ##O #@## #   ###$$$$$$$$$$",
"$$$$$$$$$$$$@@@# #  # @o##  ## ##   #   #  ### #XO@@o  ##  #### #### ### O######OO#  # O#  ###@#  ####  oX#O ###### ###$$$$$$$$$",
"$$$$$$$$$$$ ###O@###  #OO# ## #  ######o # ##  ### @# O### # ## @  ## # ##@#  ##O# ##   # ##O#@O####OOo O #O # #  ## ##$$$$$$$$$",
"$$$$$$$$$$$####O####### ####  ###O# #### @### # ## # #O##@## X### @###  ##@##  # ## # ##O###### #   #  #O#  ##O#### O##$$$$$$$$$",
"$$$$$$$$$$$o###  ##@## ##OO   ##### ## OO###O#  ##@O# @#O### # @  ## O  ### #  #  # ##@# ##O@# o# # ##   #  # ##    ##O $$$$$$$$",
"$$$$$$$$$$$###@##@## #@## #  # ## @#    # # ##O## #O####    #   ###  ## #  O## ### ### # # @@#  ## O ##Xo  #####   #OO# $$$$$$$$",
"$$$$$$$$$$### ##@#  @##### #O# ##O##@ ###     ####  ## #  # @# oO #  Oo# ### #@## #   # o##@# O# # # #O#   #@ ###  O#   $$$$$$$$",
"$$$$$$$$$$$O   #### ###O#O # ## @  # # # o######O##OO#   ##    ## ##@# #O  O### ####  #   ##   # # #### ## #   #   O   #$$$$$$$$",
"$$$$$$$$$$### O @#O###@ # O ##@#  # #@O#@ ### ###  ####   O  O #O###@ #OO#@### ###O#  # O  ## O# #O###  ##oO##    ## ###$$$$$$$$",
"$$$$$$$$$$# O###  O#O#X# ## #O  # ### #####  ##### #  ## #o#@#O## #  ####  ###  ###  @# ## O#O    ##OO ##o #@### O#  ##$$$$$$$$$",
"$$$$$$$$$$  ###  O#  ### # o  # ## #  O## O #### ##### ###@### O######O#  ###  ## O ### ###@O#   O# #O  ## O  # #####  $$$$$$$$$",
"$$$$$$$$$$  @###### ##  ## ##O# # ##O      #### @#######  O  #@@##@   #       # O@ #  # #O #######OO O   O# #### O#####$$$$$$$$$",
"$$$$$$$$$$ #O  ##O###   ## ##O ##O#@###### ## # #### ## ##### ###@#   #O ####@@  #O  ##    # ###O #  ## ###  @###    #$$$$$$$$$$",
"$$$$$$$$$$ ###@ ###   ####@  ### ##  ###O###### O O### ## # #@  #         #######O  O##### o#    @# ## #@ ###oo  O ##$$$$$$$$$$$",
"$$$$$$$$$$##### ### O##  O#@#### # #  # # ## #### ####O @## ## #    #  # #  O ### @##  @  #O####   #####   ###  ####$$$$$$$$$$$$",
"$$$$$$$$$$#@######  ###   ##O# #O##### Oo##    # ###    O####### ## #O###O # ## ####X  #O#### ##   ##### #O## O#O# $$$$$$$$$$$$$",
"$$$$$$$$$$##O####    #O ### ###OO##   ##O ##  ###  ## ## # ## ###### O# #### ## ###@@  O##### O##### O ## ####  # $$$$$$$$$$$$$$",
"$$$$$$$$$$# ########### ######O####### #  # @## # ### #########  # # O###  ##  #### # ##O#o######o##### #   O#  $$$$$$$$$$$$$$$$",
"$$$$$$$$$$### #######OO #O#o##### #### ## ##  ## o## oO #O  # #O##  ## #   ## #### O #O # O@###  # ######  #O $$$$$$$$$$$$$$$$$$",
"$$$$$$$$$$#### #  #### ####  ## ##  @###O#O## # #$$$$$$$$$$$$$$$$$$$$$$$$$$$$$$$$$$$$$$$$$$$$$$$$$$$$$$$$$$$$$$$$$$$$$$$$$$$$$$$",
"$$$$$$$$$$## ## ########O###  # OO  O ##  O# ##$$$$$$$$$$$$$$$$$$$$$$$$$$$$$$$$$$$$$$$$$$$$$$$$$$$$$$$$$$$$$$$$$$$$$$$$$$$$$$$$$",
"$$$$$$$$$$#    ## ###O##    #  O ######   ###$$$$$$$$$$$$$$$$$$$$$$$$$$$$$$$$$$$$$$$$$$$$$$$$$$$$$$$$$$$$$$$$$$$$$$$$$$$$$$$$$$$",
"$$$$$$$$$$  #  O  ###  #O#O   # ## # ### ###$$$$$$$$$$$$$$$$$$$$$$$$$$$$$$$$$$$$$$$$$$$$$$$$$$$$$$$$$$$$$$$$$$$$$$$$$$$$$$$$$$$$",
"$$$$$$$$$$### #   #### ##O## O @  ##OO ####$$$$$$$$$$$$$$$$$$$$$$$$$$$$$$$$$$$$$$$$$$$$$$$$$$$$$$$$$$$$$$$$$$$$$$$$$$$$$$$$$$$$$",
"$$$$$$$$$$##  #O   @ #@O# ####  ####O##   $$$$$$$$$$$$$$$$$$$$$$$$$$$$$$$$$$$$$$$$$$$$$$$$$$$$$$$$$$$$$$$$$$$$$$$$$$$$$$$$$$$$$$",
"$$$$$$$$$$### @  # # #@#O########## #O #  $$$$$$$$$$$$$$$$$$$$$$$$$$$$$$$$$$$$$$$$$$$$$$$$$$$$$$$$$$$$$$$$$$$$$$$$$$$$$$$$$$$$$$",
"$$$$$$$$$$####@#O##oO##OO#### ##O## ## ##$$$$$$$$$$$$$$$$$$$$$$$$$$$$$$$$$$$$$$$$$$$$$$$$$$$$$$$$$$$$$$$$$$$$$$$$$$$$$$$$$$$$$$$",
"$$$$$$$$$$##  ######    ##   ##O### #####$$$$$$$$$$$$$$$$$$$$$$$$$$$$$$$$$$$$$$$$$$$$$$$$$$$$$$$$$$$$$$$$$$$$$$$$$$$$$$$$$$$$$$$",
"$$$$$$$$$$# # #   ##  # ###  #O  #  # ###$$$$$$$$$$$$$$$$$$$$$$$$$$$$$$$$$$$$$$$$$$$$$$$$$$$$$$$$$$$$$$$$$$$$$$$$$$$$$$$$$$$$$$$",
"$$$$$$$$$$   #@ ###  O##O####O###@ @#  O#$$$$$$$$$$$$$$$$$$$$$$$$$$$$$$$$$$$$$$$$$$$$$$$$$$$$$$$$$$$$$$$$$$$$$$$$$$$$$$$$$$$$$$$",
"$$$$$$$$$$ ##  #  #   O  # ##  #@@#######$$$$$$$$$$$$$$$$$$$$$$$$$$$$$$$$$$$$$$$$$$$$$$$$$$$$$$$$$$$$$$$$$$$$$$$$$$$$$$$$$$$$$$$",
"$$$$$$$$$$ O  @#    #OO # #O# @ OO #O O# $$$$$$$$$$$$$$$$$$$$$$$$$$$$$$$$$$$$$$$$$$$$$$$$$$$$$$$$$$$$$$$$$$$$$$$$$$$$$$$$$$$$$$$",
"$$$$$$$$$$## ## ##  ###   @##### O@#@  # $$$$$$$$$$$$$$$$$$$$$$$$$$$$$$$$$$$$$$$$$$$$$$$$$$$$$$$$$$$$$$$$$$$$$$$$$$$$$$$$$$$$$$$",
"$$$$$$$$$$ #### # ####OO  # ##  # # #### $$$$$$$$$$$$$$$$$$$$$$$$$$$$$$$$$$$$$$$$$$$$$$$$$$$$$$$$$$$$$$$$$$$$$$$$$$$$$$$$$$$$$$$",
"$$$$$$$$$$ ######o#  # O#####  ## O O####$$$$$$$$$$$$$$$$$$$$$$$$$$$$$$$$$$$$$$$$$$$$$$$$$$$$$$$$$$$$$$$$$$$$$$$$$$$$$$$$$$$$$$$",
"$$$$$$$$$$##O ##O #### o#  #@##  #  #####$$$$$$$$$$$$$$$$$$$$$$$$$$$$$$$$$$$$$$$$$$$$$$$$$$$$$$$$$$$$$$$$$$$$$$$$$$$$$$$$$$$$$$$",
"$$$$$$$$$$ ## ####@##   # # ##  ## # ##  $$$$$$$$$$$$$$$$$$$$$$$$$$$$$$$$$$$$$$$$$$$$$$$$$$$$$$$$$$$$$$$$$$$$$$$$$$$$$$$$$$$$$$$",
"$$$$$$$$$$###########   @ ## #  #### ####$$$$$$$$$$$$$$$$$$$$$$$$$$$$$$$$$$$$$$$$$$$$$$$$$$$$$$$$$$$$$$$$$$$$$$$$$$$$$$$$$$$$$$$",
"$$$$$$$$$$## #### o## #  O## O     # ## O$$$$$$$$$$$$$$$$$$$$$$$$$$$$$$$$$$$$$$$$$$$$$$$$$$$$$$$$$$$$$$$$$$$$$$$$$$$$$$$$$$$$$$$",
"$$$$$$$$$$OO## ## ## ###@O ### # ###  # O$$$$$$$$$$$$$$$$$$$$$$$$$$$$$$$$$$$$$$$$$$$$$$$$$$$$$$$$$$$$$$$$$$$$$$$$$$$$$$$$$$$$$$$",
"$$$$$$$$$$##O#@## #O #  O### #  ## OO   #$$$$$$$$$$$$$$$$$$$$$$$$$$$$$$$$$$$$$$$$$$$$$$$$$$$$$$$$$$$$$$$$$$$$$$$$$$$$$$$$$$$$$$$",
"$$$$$$$$$$   #### ### # ###  ####  O##o# $$$$$$$$$$$$$$$$$$$$$$$$$$$$$$$$$$$$$$$$$$$$$$$$$$$$$$$$$$$$$$$$$$$$$$$$$$$$$$$$$$$$$$$",
"$$$$$$$$$$##O # ##  # O# ###@######  ### $$$$$$$$$$$$$$$$$$$$$$$$$$$$$$$$$$$$$$$$$$$$$$$$$$$$$$$$$$$$$$$$$$$$$$$$$$$$$$$$$$$$$$$",
"$$$$$$$$$$## ### o## ##    #  ##  ##O ##O$$$$$$$$$$$$$$$$$$$$$$$$$$$$$$$$$$$$$$$$$$$$$$$$$$$$$$$$$$$$$$$$$$$$$$$$$$$$$$$$$$$$$$$",
"$$$$$$$$$$ ##O## O## o##   OO### # ## ##o$$$$$$$$$$$$$$$$$$$$$$$$$$$$$$$$$$$$$$$$$$$$$$$$$$$$$$$$$$$$$$$$$$$$$$$$$$$$$$$$$$$$$$$",
"$$$$$$$$$$  # #   ###  ### # ##   ####  ###  #### #### O#### #O##    ##  # # #  # $$$$$$$$$$$$$$$$$$$$$$$$$$$$$$$$$$$###$$$$$$$$",
"$$$$$$$$$$  oO# # Oo# #### O@# ##### ###### #OO#####    #########O##O## #####  ## $$$$$$$$$$$$$$$$$$$$$$$$$$$$$$$$$# #O $$$$$$$$",
"$$$$$$$$$$##  O#@  # # ####O##O#  # @ ####  #  #O O### # #   O## #O #### ### # O$$$$$$$$$$$$$$$$$$$$$$$$$$$$$$$$$$ #  # $$$$$$$$",
"$$$$$$$$$$@@#   ###### ##########   @##  ### ##  #    ####  #####O##O  #   # #$$$$$$$$$$$$$$$$$$$$$$$$$$$$$$$$$$$O # ## $$$$$$$$",
"$$$$$$$$$$###  ### #O #O#### ##### # ## ##O#  #     #O# ##  O #####  ## ##O##$$$$$$$$$$$$$$$$$$$$$$$$$$$$$$$$$$####O # #$$$$$$$$",
"$$$$$$$$$$###O   @# #  O#  # ### ########@@### #######O#####o # ##### #####$$$$$$$$$$$$$$$$$$$$$$$$$$$$$$$$$$$##O#   # #$$$$$$$$",
"$$$$$$$$$$ o#  # O ######OO### # ###@###O#@ #o ### # ###  # O##   O #  ###$$$$$$$$$$$$$$$$$$$$$$$$$$$$$$$$$$$#O###   ###$$$$$$$$",
"$$$$$$$$$$  @### X O# @## #####  ###@#  O# ##   #O O####O#  #     ##OO  $$$$$$$$$$$$$$$$$$$$$$$$$$$$$$$$$$$ O   #####   $$$$$$$$",
"$$$$$$$$$$###o#@########  ##  ####  @##  #@@#O### #####@####  O#  o ## $$$$$$$$$$$$$$$$$$$$$$$$$$$$$$$$$$$ O#O#### #####$$$$$$$$",
"$$$$$$$$$$  o   #  ##### ## O# ### #@ O##O#######OO## #@  #  ### ## #$$$$$$$$$$$$$$$$$$$$$$$$$$$$$$$$$$$$#O#  #######O  $$$$$$$$",
"$$$$$$$$$$   ###@  O######O #   ##  ###o# ### #   oOO## ###O#####OO $$$$$$$$$$$$$$$$$$$$$$$$$$$$$$$$$$$###  # #O ##@ ## $$$$$$$$",
"$$$$$$$$$$OO# #@## ####### ## ## #### #  @## #o##  ######## ######$$$$$$$$$$$$$$$$$$$$$$$$$$$$$$$$$$$$#### ####### @ ###$$$$$$$$",
"$$$$$$$$$$##   #O# #   #  ## #     @ ## ##@ ###O#@ ## ###  ### ###$$$$$$$$$$$$$$$$$$$$$$$$$$$$$$$$$$$$#O ########  O## #$$$$$$$$",
"$$$$$$$$$$### #@  #  ##   #OO#@#   @####OX ###O ##  ## ### #O ####Oo$$$$$$$$$$$$$$$$$$$$$$$$$$$$$$$$$$$## ####@####     $$$$$$$$",
"$$$$$$$$$$  @ #OOo## ##    # #########@##  ##### ### ######  ##  ## #$$$$$$$$$$$$$$$$$$$$$$$$$$$$$$$$$$$$# # #######  # $$$$$$$$",
"$$$$$$$$$$ ########  ## ## ## @  ########@ ##  O@ ###   @#  O #  ##  ##$$$$$$$$$$$$$$$$$$$$$$$$$$$$$$$$$$$#   # ####o#O#$$$$$$$$",
"$$$$$$$$$$ # ## # ######OOO####O  ###o###O##    @O ##  ###O## #  ## ### $$$$$$$$$$$$$$$$$$$$$$$$$$$$$$$$$$$### ######O #$$$$$$$$",
"$$$$$$$$$$     #  O##O##    #@ ### OO #    #O#@   # ###O###  ##  ##O##### $$$$$$$$$$$$$$$$$$$$$$$$$$$$$$$$$$$#O ####o   $$$$$$$$",
"$$$$$$$$$$# ###  # o##O@## #### O ####@ #  # #  #### ## ####  #  ##  #### #$$$$$$$$$$$$$$$$$$$$$$$$$$$$$$$$$$$ ### ##   $$$$$$$$",
"$$$$$$$$$$#O @#### O#  ####  ######OoX# ##@#  o ##  O## ### O### ######   ###$$$$$$$$$$$$$$$$$$$$$$$$$$$$$$$$$$O## o ###$$$$$$$$",
"$$$$$$$$$$ O## # #O#    ## ## ####  ##### # # ### ###O#@### ##   ##O######  # $$$$$$$$$$$$$$$$$$$$$$$$$$$$$$$$$$$#O# # #$$$$$$$$",
"$$$$$$$$$$# #  ########@ #  O### @  O##O##O ## #  ##### ##O##O@   # o# ## ######$$$$$$$$$$$$$$$$$$$$$$$$$$$$$$$$$$#Oo  #$$$$$$$$",
"$$$$$$$$$$#O ## ### #@#@###  O## O#   # #####  # #  #@   O  # O#### ##O##### ####O$$$$$$$$$$$$$$$$$$$$$$$$$$$$$$$$$   ##$$$$$$$$",
"$$$$$$$$$$ O ###OO  @###### o ##  ###     ###  #### ## ###    X ##O ## ###########$$$$$$$$$$$$$$$$$$$$$$$$$$$$$$$$$$$#  $$$$$$$$",
"$$$$$$$$$$### ##O## @  ###### #  O# ### #$$$$$$$$$$$$$$$$$$$$$$$$$$$$$$$$$$$$$$$$$$$$$$$$$$$$$$$$$$$$$$$$$$$$$$$$$$$$$$$$$$$$$$$",
"$$$$$$$$$$########  #####    ##   #O ##  $$$$$$$$$$$$$$$$$$$$$$$$$$$$$$$$$$$$$$$$$$$$$$$$$$$$$$$$$$$$$$$$$$$$$$$$$$$$$$$$$$$$$$$",
"$$$$$$$$$$####  # O  O###o   @ O  #######$$$$$$$$$$$$$$$$$$$$$$$$$$$$$$$$$$$$$$$$$$$$$$$$$$$$$$$$$$$$$$$$$$$$$$$$$$$$$$$$$$$$$$$",
"$$$$$$$$$$#O### #OOo###   ##@ O  ##### ##$$$$$$$$$$$$$$$$$$$$$$$$$$$$$$$$$$$$$$$$$$$$$$$$$$$$$$$$$$$$$$$$$$$$$$$$$$$$$$$$$$$$$$$",
"$$$$$$$$$$## ##oO#  #@ ##O#  O@  ########$$$$$$$$$$$$$$$$$$$$$$$$$$$$$$$$$$$$$$$$$$$$$$$$$$$$$$$$$$$$$$$$$$$$$$$$$$$$$$$$$$$$$$$",
"$$$$$$$$$$O####  ## #o# #  #  @ #Oo#O####$$$$$$$$$$$$$$$$$$$$$$$$$$$$$$$$$$$$$$$$$$$$$$$$$$$$$$$$$$$$$$$$$$$$$$$$$$$$$$$$$$$$$$$",
"$$$$$$$$$$  ###O#O## #O###   ##@###  # # $$$$$$$$$$$$$$$$$$$$$$$$$$$$$$$$$$$$$$$$$$$$$$$$$$$$$$$$$$$$$$$$$$$$$$$$$$$$$$$$$$$$$$$",
"$$$$$$$$$$# O########  #O#O  ####o O ####$$$$$$$$$$$$$$$$$$$$$$$$$$$$$$$$$$$$$$$$$$$$$$$$$$$$$$$$$$$$$$$$$$$$$$$$$$$$$$$$$$$$$$$",
"$$$$$$$$$$#O#@  # # # #  ######o#### ### $$$$$$$$$$$$$$$$$$$$$$$$$$$$$$$$$$$$$$$$$$$$$$$$$$$$$$$$$$$$$$$$$$$$$$$$$$$$$$$$$$$$$$$",
"$$$$$$$$$$####X@###  # ## OO  @### ###@O $$$$$$$$$$$$$$$$$$$$$$$$$$$$$$$$$$$$$$$$$$$$$$$$$$$$$$$$$$$$$$$$$$$$$$$$$$$$$$$$$$$$$$$",
"$$$$$$$$$$##@O##  @ O #####  O#  #####  #$$$$$$$$$$$$$$$$$$$$$$$$$$$$$$$$$$$$$$$$$$$$$$$$$$$$$$$$$$$$$$$$$$$$$$$$$$$$$$$$$$$$$$$",
"$$$$$$$$$$#O  ### #### o###  ###  O#### #$$$$$$$$$$$$$$$$$$$$$$$$$$$$$$$$$$$$$$$$$$$$$$$$$$$$$$$$$$$$$$$$$$$$$$$$$$$$$$$$$$$$$$$",
"$$$$$$$$$$### #   O X#  O # ## ### #   O#$$$$$$$$$$$$$$$$$$$$$$$$$$$$$$$$$$$$$$$$$$$$$$$$$$$$$$$$$$$$$$$$$$$$$$$$$$$$$$$$$$$$$$$",
"$$$$$$$$$$# ##### o######   @##  # # O  #$$$$$$$$$$$$$$$$$$$$$$$$$$$$$$$$$$$$$$$$$$$$$$$$$$$$$$$$$$$$$$$$$$$$$$$$$$$$$$$$$$$$$$$",
"$$$$$$$$$$ O## #@@# #OO###      ## O#####$$$$$$$$$$$$$$$$$$$$$$$$$$$$$$$$$$$$$$$$$$$$$$$$$$$$$$$$$$$$$$$$$$$$$$$$$$$$$$$$$$$$$$$",
"$$$$$$$$$$ ##    ##### #  ###  ### ##### $$$$$$$$$$$$$$$$$$$$$$$$$$$$$$$$$$$$$$$$$$$$$$$$$$$$$$$$$$$$$$$$$$$$$$$$$$$$$$$$$$$$$$$",
"$$$$$$$$$$  O #O###  ## ####@##@  @ # #  $$$$$$$$$$$$$$$$$$$$$$$$$$$$$$$$$$$$$$$$$$$$$$$$$$$$$$$$$$$$$$$$$$$$$$$$$$$$$$$$$$$$$$$",
"$$$$$$$$$$ @@# #### #####  #  # @### ##O $$$$$$$$$$$$$$$$$$$$$$$$$$$$$$$$$$$$$$$$$$$$$$$$$$$$$$$$$$$$$$$$$$$$$$$$$$$$$$$$$$$$$$$",
"$$$$$$$$$$#  ## @   ### #     # #@#######$$$$$$$$$$$$$$$$$$$$$$$$$$$$$$$$$$$$$$$$$$$$$$$$$$$$$$$$$$$$$$$$$$$$$$$$$$$$$$$$$$$$$$$",
"$$$$$$$$$$#  O# #  O  # #  ### #OO #### ##$$$$$$$$$$$$$$$$$$$$$$$$$$$$$$$$$$$$$$$$$$$$$$$$$$$$$$$$$$$$$$$$$$$$$$$$$$$$$$$$$$$$$$",
"$$$$$$$$$$# # ##  # #O#####  #X oO@ O#####$$$$$$$$$$$$$$$$$$$$$$$$$$$$$$$$$$$$$$$$$$$$$$$$$$$$$$$$$$$$$$$$$$$$$$$$$$$$$$$$$$$$$$",
"$$$$$$$$$$### O###O ##    @###O@# ##O# ##  $$$$$$$$$$$$$$$$$$$$$$$$$$$$$$$$$$$$$$$$$$$$$$$$$$$$$$$$$$$$$$$$$$$$$$$$$$$$$$$$$$$$$",
"$$$$$$$$$$ ### ##O## ### ###### #### #   ## $$$$$$$$$$$$$$$$$$$$$$$$$$$$$$$$$$$$$$$$$$$$$$$$$$$$$$$$$$$$$$$$$$$$$$$$$$$$$$$$$$$$",
"$$$$$$$$$$## ######## ###     #@@#@     ##O##$$$$$$$$$$$$$$$$$$$$$$$$$$$$$$$$$$$$$$$$$$$$$$$$$$$$$$$$$$$$$$$$$$$$$$$$$$$$$$$$$$$",
"$$$$$$$$$$##O#O#### # #@o @##O# ##  #O ## #####$$$$$$$$$$$$$$$$$$$$$$$$$$$$$$$$$$$$$$$$$$$$$$$$$$$$$$$$$$$$$$$$$$$$$$$$$$$$$$$$$",
"$$$$$$$$$$ O O# O  # # ### ###   OO###@####OO## #$$$$$$$$$$$$$$$$$$$$$$$$$$$$$$$$$$$$$$$$$$$$$$$$$$$$$$$$$$$$$$$$$$$$$$$$$$$$$$$",
"$$$$$$$$$$####  #  ##O# O   # X ########  ## ##@## O####@#O #### O  #### O##### # #OO@#O o## ## # O ### # ### $$$$$$$$$$$$$$$$$$",
"$$$$$$$$$$###########o##OO#   ###O#  ##### #O ##O#@### ### ##  #    # Oo # ###   ##  @  #### ########  #  ###  #$$$$$$$$$$$$$$$$",
"$$$$$$$$$$#### ## ####@## # #  #X## ###@#  ## O###@ ##  #  #O  # ##### O# #@ ##Oo ##   ##O####### ###  # ## #O#OO#$$$$$$$$$$$$$$",
"$$$$$$$$$$#### ##@#@@### #O##  ### # @##OO#O#   ##    #### ##O  #   #O### # #   # #@##### O#  ## # #### ###o#O#O#O#$$$$$$$$$$$$$",
"$$$$$$$$$$  ##   ##### ##  ##  #  #  ##      @#####O############# ####  #@## ## ## ##########@#  #  ####O###    ###O$$$$$$$$$$$$",
"$$$$$$$$$$### ##   @## o# ### ## ### #  # ## ###  @####O  @# ###  ###O  ###  ## ####### # O# #@ ##    ## ###  ##   #O$$$$$$$$$$$",
"$$$$$$$$$$O### #@## ##O    ####     ## ###@#  #@# ###@ ### ##  #OoO   #@## #####O#  ###O##O  ########  O  O##@##    # $$$$$$$$$$",
"$$$$$$$$$$#### ######@ O# # #####@ # ##O @O#  ##### O# # ###  #  ##  #O### ### # #    ###o######  O#O# O   ##OO ##  ## $$$$$$$$$",
"$$$$$$$$$$######@#### X ##O  # #O### ## ## @###  O #  # ###   #O## O #  #   #@X### Oo#    #OO##  ####O##    # #  Oo####$$$$$$$$$",
"$$$$$$$$$$### #  # ###### # #@##  # ##### #  #  ## # # ####o  #O# # ##  #   @### # ######  # O   ## #OO #   ## #####OO#$$$$$$$$$",
"$$$$$$$$$$      X# @   ###### O## ####### @O  @ ##### ##@  ######   #  O# ###O#  ####@#####  #######O##O### ## #  ######$$$$$$$$",
"$$$$$$$$$$$##   ##  # ##X### #### #  #@###  #@### @ #@####O### #X#  #######O O  #### ##O###  @##### #@#  O# O######## # $$$$$$$$",
"$$$$$$$$$$####  #o ##O O@ @### @# ## #### ### # #  ## @O@##### #@@#@X# ##  ####O@#   ######## O##### @##O  # #O   # ### $$$$$$$$",
"$$$$$$$$$$$#######O#O#  #@# # ### ##@## ###@   # O#####  @## @##O##O###O##########    ##O#  #@####  # #@   ####  # # #  $$$$$$$$",
"$$$$$$$$$$$ # ##### ##   @##OO####o####O######## ####O#  OOO ##  # ##   #######  ### #O  O#  #O #@ #o  # # #  #  #######$$$$$$$$",
"$$$$$$$$$$$OO##oO#OO##### ####@##   ##OO@######@ ###O # #O O## #####O #O  # ##O  #######  ## ##o#@O #### # ##   #O##O##$$$$$$$$$",
"$$$$$$$$$$$#  O@## ##@### #### #O# #O ### ## ##    O @@# ####O#O#@ # # # ##  ###o   #O # #######O#  ### ## @#####O   # $$$$$$$$$",
"$$$$$$$$$$$$O #@ ## @#  ###### o O ##@#### ## ## O    @@###OO####  ###  ###O # ### ##OO#O# ### # ##O #O ###   OO O## # $$$$$$$$$",
"$$$$$$$$$$$$  ##O ##  ###### @ #   #O  #  O ### ######  ##### #  o#O   ########@#### ####   # O@#####  ## # ## #o#O## $$$$$$$$$$",
"$$$$$$$$$$$$$###OO# #####  ###  @#  X    # ####  #@#@#O  # # #@@####O #### ###@  ## #      ##  ### ### OOO# ## #   ##O$$$$$$$$$$",
"$$$$$$$$$$$$$### O#O# #   #  @##O #  #   #OO@#   #############O##O# @#@    ## @  ####@ ## O##    ##   @##### ###  ## $$$$$$$$$$$",
"$$$$$$$$$$$$$$#O   # #### # ### OO####  #  O## ## # ### # O@#    ##  #   #  ######O@# o@#OO   ### ##@##@o###o  O ###$$$$$$$$$$$$",
"$$$$$$$$$$$$$$$$O#  ## @## #### #  ##  ###  O@ O  #  ##  ## @O ####         O@ #@#OO# #O## # O### ######@### O# O##$$$$$$$$$$$$$",
"$$$$$$$$$$$$$$$$$#@#  #   ###  #O o # ##### ##  O##O# # ####O##  ### O# @ #O#  ## ##@#@######## #  #O## O##O# ###$$$$$$$$$$$$$$$",
"$$$$$$$$$$$$$$$$$$$# ##  O## # ###O## ### OO O## #  #O# ### #O ###   ###@## @# O####OO####O #  #OO##    O######$$$$$$$$$$$$$$$$$",
"$$$$$$$$$$$$$$$$$$$$$$## O####@ OO##  # ####   ### ## # ##O### #   #O##@@##    OO##O #######@ #   # ## ## ##$$$$$$$$$$$$$$$$$$$$"
};
